<?xml version="1.0" encoding="UTF-8" standalone="no"?>
<!-- Created with Inkscape (http://www.inkscape.org/) -->

<svg
   width="288"
   height="448"
   viewBox="0 0 76.199999 118.53334"
   version="1.1"
   id="svg1"
   xml:space="preserve"
   inkscape:export-filename="logofifa.svg"
   inkscape:export-xdpi="96"
   inkscape:export-ydpi="96"
   xmlns:inkscape="http://www.inkscape.org/namespaces/inkscape"
   xmlns:sodipodi="http://sodipodi.sourceforge.net/DTD/sodipodi-0.dtd"
   xmlns="http://www.w3.org/2000/svg"
   xmlns:svg="http://www.w3.org/2000/svg"><sodipodi:namedview
     id="namedview1"
     pagecolor="#ffffff"
     bordercolor="#000000"
     borderopacity="0.25"
     inkscape:showpageshadow="2"
     inkscape:pageopacity="0.0"
     inkscape:pagecheckerboard="0"
     inkscape:deskcolor="#d1d1d1"
     inkscape:document-units="mm"
     inkscape:export-bgcolor="#ffffff00"><inkscape:page
       x="0"
       y="0"
       width="76.199997"
       height="118.53334"
       id="page2"
       margin="0"
       bleed="0" /></sodipodi:namedview><defs
     id="defs1" /><g
     inkscape:label="Layer 1"
     inkscape:groupmode="layer"
     id="layer1"><path
       style="fill:#ffffff;stroke-width:1.89578"
       d="m 17.881168,118.49461 c -2.447564,-0.23496 -4.339201,-0.69408 -6.281771,-1.52464 C 7.054813,115.02689 3.26151,111.13958 1.417701,106.53594 0.81436204,105.02951 0.45600804,103.70988 0.18603,102.00031 L 0.040145,101.07657 V 89.750735 78.424907 l 0.107851,-0.722925 c 0.45879904,-3.075087 1.476929,-5.79761 3.051087,-8.158748 1.976361,-2.964416 4.398732,-5.102537 7.50557,-6.624839 2.017814,-0.988696 3.542475,-1.469356 5.773275,-1.820064 l 1.122579,-0.176481 6.535025,-0.004 6.535024,-0.004 0.05006,0.562276 c 0.02754,0.309251 0.110844,0.811993 0.185112,1.117204 l 0.135051,0.554932 -0.05576,2.01547 -0.05576,2.015471 0.211435,0.818044 c 0.11628,0.449925 0.211434,0.984607 0.211434,1.188182 0,0.456164 -0.189184,1.395602 -0.407256,2.022276 -0.159655,0.458834 -0.476295,1.909363 -0.803884,3.682701 -0.25227,1.365603 -0.314237,1.552638 -0.675085,2.037652 -0.435374,0.585187 -0.480168,0.676573 -0.636085,1.297714 -0.213563,0.850795 -0.605474,1.748615 -0.938973,2.151072 -0.370442,0.447039 -0.585417,0.886604 -0.989839,2.023952 -0.3805,1.070068 -0.652365,1.606093 -1.115926,2.200224 -0.761805,0.976381 -1.281509,2.441134 -1.320829,3.722668 l -0.008,0.25998 -0.266832,0.111683 c -0.470285,0.196842 -0.580557,0.808748 -0.212236,1.177715 l 0.158329,0.158607 H 38.48855 52.841549 l 0.160375,-0.160656 c 0.112851,-0.113049 0.160375,-0.26775 0.160375,-0.522113 0,-0.337536 -0.192583,-0.682762 -0.380875,-0.682762 -0.03307,0 -0.06025,-0.1717 -0.0604,-0.381543 l -2.53e-4,-0.381515 -0.331786,-0.642598 C 52.206506,86.907055 51.959149,86.383754 51.839309,86.097593 51.719468,85.811434 51.523408,85.431898 51.403623,85.25418 51.283835,85.076466 51.102227,84.70326 51.000047,84.424839 50.76726,83.790543 49.95979,82.369409 49.432789,81.666492 48.667668,80.645963 48.458569,80.239474 48.281717,79.428794 47.98267,78.057978 47.814786,77.5503 47.617654,77.420669 c -0.433448,-0.28503 -1.174859,-1.132099 -1.446822,-1.653011 -0.790899,-1.51487 -1.075882,-2.813743 -1.188226,-5.415592 -0.08315,-1.925812 -0.102131,-2.11209 -0.331453,-3.253164 -0.177176,-0.881612 -0.17049,-0.994606 0.137702,-2.329426 0.405875,-1.757841 0.865273,-3.171594 1.207195,-3.715031 l 0.113723,-0.180731 5.510825,0.0028 c 3.030955,0.0016 5.990654,0.03599 6.577111,0.07652 2.685638,0.185589 4.996727,0.809056 7.353067,1.983655 6.188046,3.084627 10.252388,9.293904 10.597894,16.190851 l 0.05133,1.024144 -8.491881,0.0083 -8.491883,0.0083 0.882036,0.153446 c 1.925484,0.334963 3.538175,0.857241 5.292166,1.7139 1.964617,0.95953 3.394146,1.970244 4.99943,3.534734 1.640875,1.599175 2.75276,3.127532 3.771606,5.18429 1.312567,2.649692 1.90482,5.028912 1.989544,7.992343 0.09376,3.276783 -0.553973,6.243283 -1.989563,9.113153 -0.979354,1.9578 -1.922302,3.28958 -3.435684,4.85249 -3.221668,3.3271 -7.446214,5.33174 -12.126785,5.75446 -0.749989,0.0677 -40.022323,0.0941 -40.717781,0.0274 z m 7.858067,-13.80341 v -1.96797 h 1.27437 1.27437 l 0.05576,-0.14056 c 0.218646,-0.55118 0.763239,-2.14853 0.763239,-2.23865 v -0.11085 h -1.683871 -1.683871 v -1.124553 -1.12455 h 2.073775 2.073777 l 0.383788,-1.104471 c 0.211085,-0.60746 0.400318,-1.14965 0.420517,-1.20488 l 0.03673,-0.10041 h -4.258347 -4.258349 v 5.542434 5.54242 h 1.764057 1.764055 z m 9.541936,-3.57447 V 95.574296 H 33.517117 31.75306 v 5.542434 5.54243 h 1.764057 1.764054 z m 5.853458,3.57645 v -1.96597 l 1.293817,-0.0221 1.293818,-0.0221 0.390584,-1.08304 c 0.214819,-0.59567 0.410817,-1.1469 0.435549,-1.22495 l 0.04497,-0.14193 h -1.731631 -1.73163 l 0.02231,-1.104473 0.02231,-1.10447 2.064748,-0.0214 c 1.135611,-0.0118 2.064746,-0.0314 2.064746,-0.0435 0,-0.0122 0.180414,-0.52153 0.400922,-1.132001 0.220506,-0.61048 0.40092,-1.14215 0.40092,-1.18148 0,-0.0409 -1.819035,-0.0715 -4.249768,-0.0715 h -4.249771 v 5.542434 5.54243 h 1.764055 1.764057 z m 6.811908,1.6246 c 0.05599,-0.18775 0.172555,-0.53115 0.259006,-0.76309 l 0.157193,-0.42171 h 1.831866 1.831866 l 0.253778,0.76309 0.253778,0.76309 h 1.72323 1.723231 l -0.02593,-0.11133 c -0.01421,-0.0612 -0.873098,-2.55532 -1.908529,-5.54242 l -1.882604,-5.431104 h -1.986291 c -1.09246,0 -1.986292,0.0127 -1.986292,0.0283 0,0.0156 -0.847949,2.476931 -1.884331,5.469724 -1.036384,2.9928 -1.884334,5.47416 -1.884334,5.51415 0,0.0411 0.743444,0.0727 1.711272,0.0727 h 1.711271 z m 1.206571,-3.49414 c 2.4e-5,-0.0331 0.231325,-0.72895 0.513999,-1.54626 l 0.513956,-1.486013 0.09435,0.240973 c 0.110957,0.28345 0.962452,2.7808 0.962452,2.82281 0,0.0158 -0.469078,0.0287 -1.042395,0.0287 -0.57332,0 -1.042377,-0.0271 -1.042353,-0.0602 z M 0.034288,57.714705 c -0.0225,-0.05876 -0.02828,-4.857171 -0.01288,-10.663146 l 0.02811,-10.556317 0.133156,-0.766235 c 0.41239204,-2.37306 0.910446,-3.958803 1.831139,-5.830128 2.366474,-4.809894 6.748391,-8.450208 11.978354,-9.951113 0.669772,-0.192212 2.520665,-0.558546 3.167282,-0.626876 0.154352,-0.01632 -3.643376,-0.03544 -8.439402,-0.0425 L 0,19.26549 0.0027,18.843784 C 0.0069,18.196425 0.139929,16.852653 0.28552904,15.988059 1.336282,9.7484492 5.521713,4.3076378 11.254665,1.72883 12.960849,0.96135094 14.503803,0.50681124 16.558067,0.16649564 l 0.801843,-0.1328398 20.046087,-0.027114 c 13.252022,-0.017836 20.385791,8.539e-4 21.048391,0.055405 4.67862,0.385118 8.765881,2.26692006 12.035148,5.54106106 1.625399,1.627814 2.533951,2.8583863 3.52287,4.7715101 1.043299,2.01828 1.622274,3.79849 1.977308,6.079592 l 0.143763,0.923739 -5.3e-4,1.887637 c -5.49e-4,1.900781 -0.0858,2.785171 -0.402708,4.173535 -0.603883,2.646301 -1.772687,5.167492 -3.424112,7.386058 -0.645307,0.866922 -2.534519,2.804874 -3.39282,3.480375 -2.797101,2.201335 -5.970563,3.519429 -9.702158,4.029794 l -0.796852,0.108989 8.880732,0.0095 8.880744,0.0095 -0.02046,9.659083 -0.02046,9.659085 -14.613595,0.0203 -14.613593,0.0203 v -0.226612 c 0,-0.387028 0.23441,-1.049549 0.850427,-2.403586 0.942028,-2.070626 1.089197,-2.589206 1.670031,-5.884687 0.605038,-3.432805 1.050904,-5.030377 2.12439,-7.611856 0.968576,-2.3292 1.274531,-3.415092 1.408532,-4.999173 0.05608,-0.66287 0.248832,-1.493124 0.555871,-2.39427 0.264883,-0.777421 0.357276,-1.29837 0.446008,-2.514787 0.04065,-0.557311 0.127038,-1.24409 0.191974,-1.526177 0.151909,-0.659934 0.319542,-3.072696 0.247101,-3.556617 -0.07802,-0.521207 -0.293478,-0.771587 -0.664439,-0.772151 -0.162175,-2.46e-4 -0.433064,-0.03888 -0.601968,-0.08588 l -0.307097,-0.08542 -0.113875,-0.273011 c -0.06264,-0.150164 -0.113874,-0.396691 -0.113874,-0.547854 0,-0.500077 -0.249497,-1.606695 -0.536829,-2.381043 -1.801001,-4.853665 -5.600536,-8.166626 -10.608795,-9.250238 l -0.841936,-0.182154 -1.884331,-0.0028 -1.884333,-0.0028 -0.863271,0.182666 c -1.200822,0.254087 -2.413949,0.666555 -3.459688,1.176304 -4.587125,2.236015 -7.67588,6.899234 -7.878619,11.894664 l -0.04565,1.124551 0.212991,0.77738 c 0.261538,0.954565 0.231018,1.115883 -0.280808,1.484237 -0.212503,0.152934 -0.410435,0.354029 -0.43985,0.446871 -0.0741,0.233894 0.02866,1.816331 0.168443,2.593576 0.06362,0.353767 0.261349,1.076692 0.4394,1.606501 0.178047,0.529808 0.396539,1.32475 0.485527,1.766537 l 0.161795,0.803252 0.593475,1.204875 0.593473,1.204876 0.120295,0.9639 c 0.06616,0.530145 0.13918,1.488021 0.16225,2.128612 0.05514,1.530479 0.228545,2.821078 0.577398,4.29739 0.156586,0.662682 0.339086,1.548265 0.405542,1.967964 0.06646,0.419697 0.207248,1.01611 0.312872,1.325363 0.105616,0.309251 0.248707,0.923737 0.317962,1.365524 0.156719,0.999735 0.437016,1.629767 1.205311,2.709254 0.319005,0.448218 0.718905,1.085591 0.888667,1.416385 l 0.308658,0.601446 -0.01023,0.608484 c -0.0057,0.334667 -0.04987,0.707886 -0.09825,0.829378 l -0.08796,0.220894 H 15.354596 0.074978 Z"
       id="path4" /></g></svg>
